<svg width="20" height="20" viewBox="0 0 20 20" fill="none" xmlns="http://www.w3.org/2000/svg">
<path fill-rule="evenodd" clip-rule="evenodd" d="M13.8676 11.7016C13.6547 11.5952 12.6111 11.0823 12.4169 11.0109C12.2226 10.9402 12.0811 10.9052 11.939 11.118C11.7976 11.3294 11.3911 11.808 11.2676 11.9494C11.1433 12.0916 11.0197 12.1087 10.8076 12.003C10.5954 11.8959 9.91115 11.6723 9.10044 10.9494C8.46972 10.3866 8.04329 9.69158 7.91972 9.47873C7.79615 9.26658 7.90615 9.15158 8.01258 9.04587C8.10829 8.95087 8.22472 8.79801 8.33115 8.67444C8.43758 8.55016 8.47258 8.46159 8.54329 8.31944C8.61472 8.17801 8.57901 8.05444 8.52544 7.94801C8.47258 7.84159 8.0483 6.79659 7.87115 6.37159C7.69901 5.95802 7.52401 6.01445 7.39401 6.0073C7.26972 6.00159 7.1283 6.00016 6.98687 6.00016C6.84544 6.00016 6.61544 6.05302 6.42115 6.26587C6.22615 6.47802 5.6783 6.99159 5.6783 8.03659C5.6783 9.08087 6.4383 10.0902 6.54473 10.2323C6.65115 10.3737 8.04115 12.518 10.1704 13.4373C10.6776 13.6559 11.0726 13.7866 11.3804 13.8837C11.889 14.0459 12.3519 14.023 12.7176 13.968C13.1247 13.9073 13.9733 13.4544 14.1504 12.9587C14.3269 12.463 14.3269 12.038 14.274 11.9494C14.2211 11.8609 14.0797 11.808 13.8669 11.7016H13.8676ZM9.99472 16.9894H9.99186C8.72717 16.9897 7.4857 16.6497 6.39758 16.0051L6.14044 15.8523L3.46759 16.5537L4.18116 13.948L4.0133 13.6809C3.30626 12.5554 2.93209 11.2529 2.93402 9.92373C2.93545 6.03088 6.10258 2.86374 9.99758 2.86374C11.8833 2.86374 13.6561 3.59945 14.989 4.93373C15.6464 5.58843 16.1675 6.36699 16.522 7.22437C16.8766 8.08175 17.0577 9.00093 17.0547 9.92873C17.0533 13.8216 13.8861 16.9894 9.99472 16.9894ZM16.0033 3.92016C15.2163 3.12797 14.2799 2.49984 13.2483 2.07217C12.2168 1.6445 11.1107 1.4258 9.99401 1.42874C5.31259 1.42874 1.50116 5.23945 1.49974 9.92301C1.49902 11.4202 1.88973 12.8816 2.6333 14.1694L1.42831 18.5716L5.93116 17.3901C7.17678 18.0688 8.57265 18.4244 9.99115 18.4244H9.99472C14.6761 18.4244 18.4876 14.6137 18.489 9.92944C18.4924 8.81321 18.2745 7.70737 17.8479 6.6759C17.4212 5.64442 16.7943 4.70778 16.0033 3.92016Z" fill="white"/>
</svg>
